<!--?xml version="1.0" standalone="no"?-->

<svg version="1.0" xmlns="http://www.w3.org/2000/svg" width="300.000000pt" height="300.000000pt" viewBox="0 0 300.000000 300.000000" preserveAspectRatio="xMidYMid meet">
<g transform="translate(0.000000,300.000000) scale(0.100000,-0.100000)" fill="#151515" stroke="none">
<path d="M320 2755 c0 -276 3 -265 -80 -265 l-41 0 3 -52 3 -53 50 -3 c27 -2
53 -9 57 -15 10 -16 10 -218 0 -234 -4 -6 -30 -13 -57 -15 l-50 -3 -3 -52 -3
-53 41 0 c77 0 80 -6 80 -135 0 -80 -4 -116 -12 -122 -7 -4 -33 -10 -58 -13
l-45 -5 -3 -52 -3 -53 41 0 c76 0 80 -6 80 -130 0 -124 -4 -130 -80 -130 l-41
0 3 -52 3 -53 45 -5 c25 -3 51 -9 58 -13 8 -6 12 -42 12 -122 0 -129 -3 -135
-80 -135 l-41 0 3 -53 3 -52 50 -3 c27 -2 53 -9 57 -15 10 -16 10 -218 0 -234
-4 -6 -30 -13 -57 -15 l-50 -3 -3 -52 -3 -53 41 0 c83 0 80 11 80 -265 l0
-245 1115 0 1115 0 0 273 c0 199 3 276 12 285 7 7 34 12 61 12 102 0 206 82
235 186 16 56 17 1685 1 1735 -36 117 -104 174 -221 186 -33 3 -66 12 -74 20
-11 11 -14 47 -14 159 l0 144 -1115 0 -1115 0 0 -245z m2120 -1255 l0 -1380
-999 0 -999 0 -6 22 c-3 13 -6 96 -6 184 0 181 2 188 67 183 51 -4 63 5 63 46
0 58 -7 65 -65 65 -63 0 -65 3 -65 130 0 127 2 130 65 130 58 0 65 7 65 65 0
41 -12 50 -63 46 -61 -4 -67 7 -67 126 0 132 6 143 70 143 45 0 50 3 56 25 3
14 3 41 0 60 -7 34 -7 34 -51 28 -69 -9 -75 1 -75 127 0 126 6 136 75 127 44
-6 44 -6 51 28 3 19 3 46 0 60 -6 22 -11 25 -56 25 -64 0 -70 11 -70 143 0
119 6 130 67 126 51 -4 63 5 63 46 0 58 -7 65 -65 65 -63 0 -65 3 -65 130 0
127 2 130 65 130 58 0 65 7 65 65 0 41 -12 50 -63 46 -65 -5 -67 2 -67 183 0
88 3 171 6 184 l6 22 999 0 999 0 0 -1380z m257 1044 c49 -31 58 -60 61 -195
5 -169 5 -169 -103 -169 -73 0 -86 3 -95 19 -11 22 -14 330 -2 347 18 27 97
26 139 -2z m44 -484 c18 -10 19 -23 19 -183 0 -121 -4 -177 -12 -185 -7 -7
-44 -12 -95 -12 -71 0 -84 3 -93 19 -15 29 -13 344 2 359 15 15 152 16 179 2z
m7 -502 c15 -15 17 -330 2 -359 -9 -16 -22 -19 -95 -19 -73 0 -86 3 -95 19 -6
11 -10 87 -10 176 0 89 4 165 10 176 9 16 22 19 93 19 51 0 88 -5 95 -12z m-7
-498 c17 -10 19 -22 19 -134 0 -165 -10 -192 -89 -233 -37 -20 -98 -17 -111 6
-11 22 -14 330 -2 347 4 6 14 14 22 17 26 10 140 7 161 -3z" id="node1" class="node"></path>
<path d="M1068 2198 c-2 -161 -2 -296 0 -300 4 -10 860 -10 864 0 2 4 2 139 0
300 l-3 292 -429 0 -429 0 -3 -292z m746 166 c12 -31 7 -349 -6 -362 -17 -17
-599 -17 -616 0 -13 13 -18 331 -6 362 5 14 42 16 314 16 272 0 309 -2 314
-16z" id="node2" class="node"></path>
</g>
<g transform="translate(0.000000,300.000000) scale(0.100000,-0.100000)" fill="#A7A7A7" stroke="none">


<path d="M436 2858 c-3 -13 -6 -96 -6 -184 0 -181 2 -188 67 -183 51 4 63 -5
63 -46 0 -58 -7 -65 -65 -65 -63 0 -65 -3 -65 -130 0 -127 2 -130 65 -130 58
0 65 -7 65 -65 0 -41 -12 -50 -63 -46 -61 4 -67 -7 -67 -126 0 -132 6 -143 70
-143 45 0 50 -3 56 -25 3 -14 3 -41 0 -60 -7 -34 -7 -34 -51 -28 -69 9 -75 -1
-75 -127 0 -126 6 -136 75 -127 44 6 44 6 51 -28 3 -19 3 -46 0 -60 -6 -22
-11 -25 -56 -25 -64 0 -70 -11 -70 -143 0 -119 6 -130 67 -126 51 4 63 -5 63
-46 0 -58 -7 -65 -65 -65 -63 0 -65 -3 -65 -130 0 -127 2 -130 65 -130 58 0
65 -7 65 -65 0 -41 -12 -50 -63 -46 -65 5 -67 -2 -67 -183 0 -88 3 -171 6
-184 l6 -22 999 0 999 0 0 1380 0 1380 -999 0 -999 0 -6 -22z m1496 -660 c2
-161 2 -296 0 -300 -2 -5 -196 -8 -432 -8 -236 0 -430 3 -432 8 -2 4 -2 139 0
300 l3 292 429 0 429 0 3 -292z" id="node5" class="node"></path>
<path d="M1186 2364 c-12 -31 -7 -349 6 -362 17 -17 599 -17 616 0 13 13 18
331 6 362 -5 14 -42 16 -314 16 -272 0 -309 -2 -314 -16z" id="node6" class="node"></path>
<path d="M2580 2563 c-8 -3 -18 -11 -22 -17 -12 -17 -9 -325 2 -347 9 -16 22
-19 95 -19 108 0 108 0 103 169 -3 135 -12 164 -61 195 -25 17 -95 28 -117 19z" id="node7" class="node"></path>
<path d="M2562 2058 c-15 -15 -17 -330 -2 -359 9 -16 22 -19 93 -19 51 0 88 5
95 12 8 8 12 64 12 185 0 160 -1 173 -19 183 -27 14 -164 13 -179 -2z" id="node8" class="node"></path>
<path d="M2560 1551 c-6 -11 -10 -87 -10 -176 0 -89 4 -165 10 -176 9 -16 22
-19 95 -19 73 0 86 3 95 19 15 29 13 344 -2 359 -7 7 -44 12 -95 12 -71 0 -84
-3 -93 -19z" id="node9" class="node"></path>
<path d="M2580 1063 c-8 -3 -18 -11 -22 -17 -12 -17 -9 -325 2 -347 13 -23 74
-26 111 -6 79 41 89 68 89 233 0 112 -2 124 -19 134 -21 10 -135 13 -161 3z" id="node10" class="node"></path>
</g>
</svg>